<?xml version="1.0" encoding="UTF-8" standalone="no"?>
<!DOCTYPE svg PUBLIC "-//W3C//DTD SVG 1.1//EN"
 "http://www.w3.org/Graphics/SVG/1.1/DTD/svg11.dtd">
<!-- Generated by graphviz version 2.44.0 ()
 -->
<!-- Title: Graphical Class Hierarchy Pages: 1 -->
<svg width="446pt" height="66pt"
 viewBox="0.00 0.00 446.00 66.00" xmlns="http://www.w3.org/2000/svg" xmlns:xlink="http://www.w3.org/1999/xlink">
<g id="graph0" class="graph" transform="scale(1 1) rotate(0) translate(4 62)">
<title>Graphical Class Hierarchy</title>
<polygon fill="white" stroke="transparent" points="-4,4 -4,-62 442,-62 442,4 -4,4"/>
<!-- Node3 -->
<g id="node1" class="node">
<title>Node3</title>
<g id="a_node1"><a xlink:title=" ">
<polygon fill="white" stroke="#bfbfbf" points="0,-19.5 0,-38.5 84,-38.5 84,-19.5 0,-19.5"/>
<text text-anchor="middle" x="42" y="-26.5" font-family="FreeSans" font-size="10.00">MonoBehaviour</text>
</a>
</g>
</g>
<!-- Node0 -->
<g id="node2" class="node">
<title>Node0</title>
<g id="a_node2"><a xlink:href="classcom_1_1_c_j_1_1_doxygen_test_1_1_script1.html" target="_top" xlink:title="Script1 description.">
<polygon fill="white" stroke="black" points="120,-38.5 120,-57.5 261,-57.5 261,-38.5 120,-38.5"/>
<text text-anchor="middle" x="190.5" y="-45.5" font-family="FreeSans" font-size="10.00">com.CJ.DoxygenTest.Script1</text>
</a>
</g>
</g>
<!-- Node3&#45;&gt;Node0 -->
<g id="edge1" class="edge">
<title>Node3&#45;&gt;Node0</title>
<path fill="none" stroke="midnightblue" d="M94.36,-35.66C102.58,-36.73 111.21,-37.85 119.77,-38.96"/>
<polygon fill="midnightblue" stroke="midnightblue" points="94.57,-32.16 84.2,-34.34 93.67,-39.1 94.57,-32.16"/>
</g>
<!-- Node6 -->
<g id="node4" class="node">
<title>Node6</title>
<g id="a_node4"><a xlink:href="classcom_1_1_c_j_1_1_doxygen_test_1_1_script3.html" target="_top" xlink:title="Description for Script3.">
<polygon fill="white" stroke="black" points="120,-0.5 120,-19.5 261,-19.5 261,-0.5 120,-0.5"/>
<text text-anchor="middle" x="190.5" y="-7.5" font-family="FreeSans" font-size="10.00">com.CJ.DoxygenTest.Script3</text>
</a>
</g>
</g>
<!-- Node3&#45;&gt;Node6 -->
<g id="edge3" class="edge">
<title>Node3&#45;&gt;Node6</title>
<path fill="none" stroke="midnightblue" d="M94.36,-22.34C102.58,-21.27 111.21,-20.15 119.77,-19.04"/>
<polygon fill="midnightblue" stroke="midnightblue" points="93.67,-18.9 84.2,-23.66 94.57,-25.84 93.67,-18.9"/>
</g>
<!-- Node1 -->
<g id="node3" class="node">
<title>Node1</title>
<g id="a_node3"><a xlink:href="classcom_1_1_c_j_1_1_doxygen_test_1_1_script2.html" target="_top" xlink:title="Script2 description.">
<polygon fill="white" stroke="black" points="297,-38.5 297,-57.5 438,-57.5 438,-38.5 297,-38.5"/>
<text text-anchor="middle" x="367.5" y="-45.5" font-family="FreeSans" font-size="10.00">com.CJ.DoxygenTest.Script2</text>
</a>
</g>
</g>
<!-- Node0&#45;&gt;Node1 -->
<g id="edge2" class="edge">
<title>Node0&#45;&gt;Node1</title>
<path fill="none" stroke="midnightblue" d="M271.42,-48C279.89,-48 288.45,-48 296.79,-48"/>
<polygon fill="midnightblue" stroke="midnightblue" points="271.17,-44.5 261.17,-48 271.17,-51.5 271.17,-44.5"/>
</g>
<!-- Node7 -->
<g id="node5" class="node">
<title>Node7</title>
<g id="a_node5"><a xlink:href="classcom_1_1_c_j_1_1_doxygen_test_1_1_script4.html" target="_top" xlink:title=" ">
<polygon fill="white" stroke="black" points="297,-0.5 297,-19.5 438,-19.5 438,-0.5 297,-0.5"/>
<text text-anchor="middle" x="367.5" y="-7.5" font-family="FreeSans" font-size="10.00">com.CJ.DoxygenTest.Script4</text>
</a>
</g>
</g>
<!-- Node6&#45;&gt;Node7 -->
<g id="edge4" class="edge">
<title>Node6&#45;&gt;Node7</title>
<path fill="none" stroke="midnightblue" d="M271.42,-10C279.89,-10 288.45,-10 296.79,-10"/>
<polygon fill="midnightblue" stroke="midnightblue" points="271.17,-6.5 261.17,-10 271.17,-13.5 271.17,-6.5"/>
</g>
</g>
</svg>
